<svg width="189" height="82" viewBox="0 0 189 82" fill="none" xmlns="http://www.w3.org/2000/svg">
<path fill-rule="evenodd" clip-rule="evenodd" d="M94.4814 82C101.314 71.0273 138.934 82.98 154.027 68.9211C183.722 69.9002 188.826 52.126 188.997 43.4937C189.168 34.8615 181.478 14.4004 151.808 17.1926C146.382 3.50106 118.318 17.5111 102.683 9.40396C102.75 1.83574 99.2357 0.733036 95.4861 0.0551519C94.8286 -0.0196638 94.1713 -0.0170929 93.5138 0.0551519C89.7642 0.733036 86.2502 1.83574 86.3166 9.40396C70.6818 17.5111 42.6178 3.50106 37.1924 17.1926C7.52216 14.4004 -0.168417 34.8615 0.00277795 43.4937C0.173801 52.126 5.27756 69.9002 34.973 68.9211C50.0656 82.98 87.6486 71.0273 94.4814 82Z" fill="#BEEAF3"/>
<path fill-rule="evenodd" clip-rule="evenodd" d="M90.3116 13.0029C71.5693 25.4697 50.0159 5.88178 39.7075 23.7124C21.2436 18.2531 6.91849 28.9599 5.70891 44.6029C5.12862 52.1069 14.6463 69.5699 39.4855 64.3642C51.9145 80.3336 69.7444 63.7521 93.8626 74.7982C77.8825 60.6169 49.5474 76.9659 41.2612 63.7397C44.7469 61.2718 44.5805 58.248 43.3043 57.6678C42.1942 57.1631 38.879 57.7938 38.6856 62.8579C13.726 67.7203 8.73313 52.3592 8.68317 44.554C8.63312 36.7487 15.1842 19.2479 39.308 24.9062C38.9978 28.9365 42.0832 32.1453 43.7497 30.8518C45.0788 29.8202 43.8615 26.1051 40.9653 24.0981C46.7607 11.4355 78.1536 26.327 90.3116 13.0029ZM40.7328 25.8041C41.3612 26.2145 43.5898 28.2765 42.6323 29.0047C41.5377 29.8371 40.6759 26.825 40.7328 25.8041ZM40.5721 62.1251C41.2005 61.7146 43.4291 59.6527 42.4715 58.9245C41.3769 58.0921 40.5151 61.1041 40.5721 62.1251Z" fill="#1197B8"/>
<path fill-rule="evenodd" clip-rule="evenodd" d="M125.019 36.214C120.599 36.3004 115.341 35.1371 111.063 35.4742C107.464 35.7578 104.493 37.3982 103.864 40.4353C103.401 42.6736 105.486 45.0255 110.042 45.1379C112.91 45.0763 114.712 43.101 115.145 41.2078C115.399 39.7793 114.609 39.0851 113.908 38.8879C112.829 38.5842 111.482 39.1951 111.373 40.3618C112.303 39.8194 112.876 39.9156 113.169 40.0994C114.669 41.04 111.911 43.9689 110.005 43.7419C107.489 43.6609 105.498 42.7145 105.566 40.8762C105.815 38.9225 108.428 37.6051 110.65 37.6972C114.345 37.8761 116.722 38.138 121.398 38.7453C119.413 44.5255 117.428 50.3058 115.443 56.0861C116.331 56.1227 117.218 56.1596 118.106 56.1962C125.048 45.6362 133.334 38.3049 139.817 36.8954C143.743 36.042 147.791 36.7447 150.547 41.3161C152.539 37.3917 145.219 34.8468 141.755 35.1273C135.874 35.6038 127.271 40.1497 120.695 49.215C122.237 44.9535 123.478 40.4755 125.019 36.214Z" fill="#5A9ED5"/>
<path fill-rule="evenodd" clip-rule="evenodd" d="M67.1265 37.0671C62.2475 38.3732 50.6857 34.7433 42.7309 34.9178C37.5768 35.1933 35.2804 37.3475 35.1312 40.4051C35.0245 42.5918 37.506 43.9772 40.1229 43.9006C43.4352 43.8065 46.6028 42.3983 46.7813 39.749C46.7693 38.5763 45.5428 38.19 44.9317 38.1165C44.1232 38.0194 42.9899 38.4416 42.5273 39.7123C44.1735 39.3081 45.3571 39.2714 45.0983 40.5021C44.5678 41.8555 41.7074 42.9329 40.1599 42.8351C38.452 42.6821 37.2065 41.6045 37.2006 40.4472C37.1908 38.508 39.6697 36.9315 42.4799 36.9151C45.9205 36.895 48.6063 37.6733 51.9971 38.4999C50.1477 41.1574 48.298 43.8148 46.4484 46.4723L43.0082 46.2704C43.9947 46.6256 44.9809 46.9255 45.9675 47.2807C43.4274 51.1016 40.1757 55.7276 35.5731 55.4367C33.1667 55.2845 31.3492 53.7262 31.282 52.0201C31.2202 50.4461 32.2933 48.0541 35.7209 47.3908C37.1758 47.1702 38.3103 47.6844 39.1241 48.9339C39.3283 47.0504 37.6906 46.3247 35.8587 46.1289C33.0287 45.8264 29.6306 48.2586 29.2846 51.4321C28.9652 54.3616 31.4942 56.5985 35.2402 56.943C41.5657 57.1023 46.2265 53.3671 49.5557 47.1703C50.1303 46.7946 50.8618 46.7554 51.2388 47.2624C51.1526 48.4747 50.8627 49.5585 50.7764 50.7708C52.3979 46.8703 56.7012 44.164 55.5668 43.9741C54.6647 43.7487 53.1217 45.8264 52.2555 46.0136C51.246 46.2317 50.5775 45.8792 50.8133 45.2966C52.2067 43.1658 53.6 41.0348 54.9933 38.904C63.1429 40.3734 66.8196 39.7114 67.1265 37.0671Z" fill="#5A9ED5"/>
<path fill-rule="evenodd" clip-rule="evenodd" d="M89.6402 15.3945C90.3371 15.3945 90.9542 15.7334 91.3338 16.2539L93.6018 12.9055C85.0569 5.19012 89.3623 4.84988 89.3623 4.84988L94.5 11.7023L99.6374 4.84988C99.6374 4.84988 103.943 5.19012 95.3979 12.9055L97.666 16.2539C98.0456 15.7334 98.6626 15.3945 99.3596 15.3945C100.514 15.3945 101.449 16.3236 101.449 17.47C101.449 18.6164 100.514 19.5456 99.3596 19.5456C98.2132 19.5456 97.2827 18.629 97.2702 17.4935L94.5 14.0995L91.7295 17.4935C91.717 18.629 90.7865 19.5456 89.6402 19.5456C88.4859 19.5456 87.5504 18.6164 87.5504 17.47C87.5504 16.3236 88.4859 15.3945 89.6402 15.3945ZM99.3596 16.5149C98.8285 16.5149 98.398 16.9424 98.398 17.47C98.398 17.9976 98.8285 18.4251 99.3596 18.4251C99.8907 18.4251 100.321 17.9976 100.321 17.47C100.321 16.9424 99.8907 16.5149 99.3596 16.5149ZM89.6402 16.5149C90.1714 16.5149 90.6019 16.9424 90.6019 17.47C90.6019 17.9976 90.1714 18.4251 89.6402 18.4251C89.109 18.4251 88.6785 17.9976 88.6785 17.47C88.6785 16.9424 89.109 16.5149 89.6402 16.5149Z" fill="#0C84A4"/>
<path fill-rule="evenodd" clip-rule="evenodd" d="M49.7403 32.1794L48.5179 29.1677L50.7073 28.291L50.8508 28.6444L49.0636 29.36L49.4392 30.2853L51.1121 29.6155L51.2555 29.9689L49.5827 30.6387L49.9993 31.6649L51.8584 30.9206L52.0018 31.2739L49.7403 32.1794ZM52.0908 30.0786L52.4649 29.9167C52.5348 30.0656 52.62 30.1785 52.7205 30.256C52.8209 30.3327 52.9518 30.3787 53.1132 30.3938C53.2745 30.4083 53.4437 30.3866 53.6199 30.3283C53.7766 30.2765 53.9068 30.208 54.0111 30.1217C54.1153 30.0355 54.1827 29.9423 54.2141 29.8419C54.2454 29.7415 54.2454 29.6435 54.2137 29.5489C54.1815 29.4527 54.1252 29.3781 54.0446 29.3243C53.9642 29.2712 53.8509 29.2418 53.7044 29.2353C53.6107 29.2312 53.4098 29.2418 53.1017 29.268C52.7936 29.2941 52.5729 29.2962 52.4386 29.2737C52.2647 29.2452 52.1227 29.1853 52.0123 29.0952C51.9011 29.0053 51.822 28.8889 51.7746 28.7476C51.7223 28.5912 51.7182 28.4308 51.7619 28.2666C51.8053 28.1017 51.9001 27.9564 52.0477 27.8295C52.1946 27.703 52.3727 27.605 52.5814 27.536C52.811 27.4601 53.0262 27.4296 53.2264 27.4454C53.4265 27.4606 53.5977 27.5243 53.7404 27.6365C53.8828 27.7479 53.9877 27.8932 54.0555 28.0716L53.6713 28.232C53.5852 28.0447 53.4645 27.9212 53.3093 27.8626C53.1538 27.8032 52.9567 27.8134 52.7184 27.8922C52.47 27.9744 52.3039 28.0794 52.2208 28.2073C52.1377 28.3352 52.1172 28.463 52.16 28.5906C52.197 28.7011 52.268 28.7788 52.3722 28.824C52.4754 28.8688 52.706 28.8746 53.0646 28.8389C53.4234 28.804 53.6742 28.7935 53.8172 28.8084C54.0246 28.8315 54.193 28.8913 54.3215 28.9898C54.4497 29.0876 54.5411 29.2191 54.5964 29.3841C54.6515 29.5483 54.656 29.7172 54.6099 29.8934C54.5639 30.0696 54.4666 30.2268 54.3166 30.3656C54.1666 30.5044 53.9815 30.6102 53.7598 30.6835C53.4796 30.7761 53.2313 30.8128 53.0149 30.7944C52.7978 30.7762 52.609 30.7031 52.4465 30.5752C52.2837 30.4482 52.1655 30.2825 52.0908 30.0786ZM57.3655 28.3207L57.8124 28.3001C57.8287 28.664 57.751 28.9677 57.5798 29.2126C57.4088 29.4575 57.1606 29.6291 56.8349 29.727C56.4984 29.8281 56.2037 29.8424 55.9508 29.7692C55.6982 29.6966 55.4778 29.5472 55.2891 29.322C55.1002 29.096 54.9604 28.8356 54.8701 28.5389C54.7716 28.2155 54.7475 27.9147 54.7988 27.6364C54.8499 27.358 54.9712 27.1218 55.1626 26.9277C55.3539 26.7336 55.5877 26.5955 55.863 26.5128C56.1763 26.4186 56.4633 26.4185 56.7243 26.513C56.986 26.6073 57.2022 26.7848 57.3733 27.0461L56.9958 27.2638C56.8549 27.0597 56.6991 26.9264 56.5301 26.8651C56.3609 26.803 56.172 26.8037 55.9629 26.8665C55.7232 26.9385 55.5396 27.0561 55.4134 27.2188C55.2873 27.3814 55.2206 27.5697 55.2143 27.7816C55.2076 27.9945 55.2354 28.2033 55.2978 28.408C55.3782 28.6721 55.4871 28.8914 55.6242 29.0649C55.7616 29.2392 55.9266 29.35 56.1195 29.3986C56.3124 29.4473 56.5034 29.4428 56.6936 29.3857C56.9253 29.3161 57.1002 29.1909 57.2201 29.0103C57.3399 28.8291 57.3884 28.5996 57.3655 28.3207ZM58.1219 27.643C57.9913 27.1206 58.0308 26.6764 58.2398 26.311C58.4488 25.9455 58.7767 25.7081 59.2244 25.5978C59.5176 25.5254 59.7987 25.5301 60.069 25.6106C60.3385 25.6913 60.5664 25.8408 60.7519 26.0591C60.9373 26.2766 61.0697 26.5429 61.1484 26.8577C61.2283 27.1768 61.2347 27.4789 61.1677 27.7626C61.1007 28.047 60.9646 28.2831 60.7589 28.4709C60.5528 28.6595 60.312 28.7875 60.0364 28.8555C59.7373 28.9292 59.4526 28.9231 59.1813 28.8381C58.9107 28.753 58.6831 28.602 58.4999 28.3838C58.317 28.1665 58.191 27.9195 58.1219 27.643ZM58.558 27.5432C58.6528 27.9225 58.8301 28.1957 59.09 28.3629C59.3498 28.5302 59.6349 28.576 59.9451 28.4995C60.2612 28.4215 60.4929 28.2475 60.6425 27.977C60.7914 27.7067 60.8152 27.369 60.714 26.9641C60.65 26.708 60.5505 26.495 60.4156 26.3258C60.2807 26.1565 60.1159 26.0399 59.922 25.9763C59.7274 25.913 59.5259 25.9065 59.3168 25.9581C59.0199 26.0313 58.7897 26.1956 58.6261 26.4509C58.4625 26.7062 58.4397 27.0701 58.558 27.5432ZM62.0327 28.2954L61.3186 25.1266L61.7419 25.0325L62.3723 27.8295L63.9408 27.4808L64.0246 27.8526L62.0327 28.2954ZM64.1947 27.8248L64.7807 24.3959L65.2471 24.3029L67.1958 27.2263L66.7131 27.3226L66.1471 26.4317L64.7973 26.7009L64.6446 27.7351L64.1947 27.8248ZM64.8527 26.3337L65.9451 26.1158L65.4324 25.2998C65.2774 25.0517 65.1565 24.8452 65.0681 24.6809C65.0661 24.8972 65.0483 25.1128 65.0153 25.3291L64.8527 26.3337ZM69.2586 26.8693L68.8086 24.0381L67.7441 24.2051L67.6843 23.8287L70.2417 23.4277L70.3015 23.8041L69.2371 23.9709L69.6871 26.8021L69.2586 26.8693ZM71.1914 26.5501L70.7454 23.3332L73.0841 23.0133L73.1364 23.3907L71.2275 23.6519L71.3645 24.6402L73.1513 24.3959L73.2036 24.7733L71.4169 25.0177L71.5688 26.1139L73.5547 25.8424L73.607 26.2197L71.1914 26.5501ZM71.6001 23.0149L71.8043 22.3598L72.329 22.288L71.9304 22.9697L71.6001 23.0149ZM76.4072 24.7019L76.8509 24.7595C76.8026 25.1206 76.6726 25.4061 76.4609 25.6174C76.2493 25.8287 75.9745 25.9545 75.6367 25.9941C75.2875 26.0352 74.9949 25.9979 74.7588 25.8818C74.5229 25.7663 74.3323 25.5809 74.1863 25.3263C74.0402 25.071 73.9486 24.7902 73.9119 24.4824C73.872 24.1469 73.9014 23.8466 74.0009 23.5815C74.1005 23.3164 74.2615 23.1049 74.4842 22.9471C74.7069 22.7893 74.9614 22.694 75.2471 22.6605C75.5721 22.6224 75.8547 22.6721 76.0949 22.8106C76.3359 22.949 76.5175 23.1614 76.6398 23.4485L76.2298 23.597C76.1271 23.3716 75.9972 23.2133 75.8417 23.1235C75.6861 23.0329 75.4998 23.0007 75.2829 23.0262C75.0342 23.0553 74.8327 23.1391 74.6798 23.2773C74.5269 23.4155 74.428 23.5892 74.3845 23.7968C74.3403 24.0052 74.3308 24.2156 74.3561 24.428C74.3886 24.702 74.4572 24.9368 74.5615 25.1315C74.666 25.3271 74.8089 25.4648 74.9902 25.5463C75.1716 25.6278 75.3605 25.6566 75.5577 25.6335C75.7981 25.6053 75.9925 25.5125 76.1423 25.3557C76.2922 25.198 76.3806 24.9806 76.4072 24.7019ZM77.4771 25.7486L77.1545 22.5173L77.5968 22.4737L79.5571 24.842L79.3038 22.3056L79.7173 22.2649L80.04 25.4963L79.5977 25.5398L77.6374 23.1715L77.8906 25.7079L77.4771 25.7486ZM80.8527 25.4312L80.59 22.1945L81.0225 22.1599L81.2851 25.3967L80.8527 25.4312ZM84.302 24.0265L84.7418 24.1084C84.6735 24.4663 84.5278 24.7441 84.3047 24.9435C84.0816 25.1429 83.8002 25.2534 83.4608 25.2745C83.1098 25.2962 82.8197 25.243 82.5905 25.1141C82.3613 24.9859 82.1813 24.7903 82.0497 24.5281C81.918 24.265 81.8422 23.9797 81.8228 23.6704C81.8016 23.3331 81.8477 23.035 81.9618 22.7757C82.0759 22.5164 82.2485 22.3141 82.4796 22.1688C82.7107 22.0235 82.9701 21.9422 83.2573 21.9245C83.5839 21.9043 83.8633 21.9695 84.0954 22.121C84.3284 22.2724 84.4979 22.4944 84.604 22.7877L84.1864 22.9136C84.0964 22.6829 83.9755 22.5177 83.8252 22.4195C83.6748 22.3205 83.4907 22.2781 83.2727 22.2916C83.0228 22.3071 82.8169 22.3796 82.6565 22.5092C82.4961 22.6388 82.3877 22.8069 82.3327 23.0118C82.277 23.2174 82.2558 23.427 82.2692 23.6405C82.2866 23.9158 82.3419 24.154 82.4353 24.3542C82.5288 24.5551 82.6637 24.7006 82.8403 24.7918C83.0168 24.8832 83.2038 24.9224 83.402 24.91C83.6435 24.8951 83.8428 24.8131 84.0012 24.6647C84.1596 24.5156 84.2599 24.3033 84.302 24.0265ZM84.9889 25.1027L86.0969 21.8034L86.5721 21.7824L88.0469 24.9679L87.5549 24.9895L87.1332 24.023L85.7577 24.0836L85.4474 25.0825L84.9889 25.1027ZM85.8691 23.7292L86.9823 23.6801L86.6015 22.7957C86.4866 22.527 86.3989 22.3046 86.337 22.1287C86.3016 22.3422 86.2508 22.5525 86.1847 22.7612L85.8691 23.7292ZM89.4098 24.957L89.323 21.7109L90.449 21.6812C90.703 21.6745 90.8975 21.6845 91.0322 21.712C91.2205 21.7501 91.3823 21.8237 91.5177 21.932C91.6943 22.0726 91.8278 22.2536 91.919 22.4765C92.011 22.6994 92.0605 22.9559 92.0682 23.2453C92.0748 23.4916 92.0518 23.7107 91.999 23.9027C91.9463 24.0947 91.876 24.2545 91.7887 24.3816C91.7008 24.5087 91.6045 24.6095 91.4984 24.6834C91.393 24.758 91.2644 24.8158 91.1132 24.8569C90.9613 24.8979 90.7868 24.9207 90.589 24.9259L89.4098 24.957ZM89.8332 24.5647L90.5302 24.5464C90.7454 24.5407 90.9138 24.5166 91.0352 24.4733C91.1566 24.43 91.2526 24.3716 91.3237 24.2971C91.4228 24.1924 91.499 24.0528 91.5515 23.879C91.6039 23.7052 91.6273 23.4959 91.6207 23.2503C91.6116 22.9103 91.5483 22.6503 91.4316 22.4704C91.3148 22.2905 91.1754 22.1717 91.0132 22.114C90.8964 22.0724 90.7095 22.0555 90.4522 22.0622L89.7668 22.0803L89.8332 24.5647ZM92.7167 24.8724L92.6879 21.6253L95.0485 21.6047L95.052 21.9856L93.125 22.0025L93.1339 23.0002L94.9375 22.9844L94.9409 23.3654L93.1372 23.3811L93.1471 24.4877L95.1516 24.4701L95.155 24.8511L92.7167 24.8724ZM99.3804 23.8076L99.8111 23.9278C99.7111 24.2782 99.5411 24.5423 99.3011 24.7211C99.0611 24.9001 98.771 24.9854 98.4309 24.9764C98.0794 24.9672 97.7952 24.8886 97.5785 24.74C97.3616 24.5921 97.1998 24.3814 97.0921 24.1086C96.9845 23.8351 96.9344 23.5441 96.9426 23.2344C96.9517 22.8966 97.0243 22.6037 97.1611 22.3555C97.2979 22.1073 97.4879 21.921 97.7311 21.7966C97.9742 21.6722 98.2399 21.6142 98.5275 21.6217C98.8546 21.6304 99.1271 21.72 99.3448 21.8913C99.5633 22.0627 99.7123 22.2988 99.7918 22.6002L99.3646 22.6889C99.2955 22.4511 99.1898 22.2759 99.0489 22.1648C98.908 22.053 98.7284 21.9945 98.5101 21.9888C98.2597 21.9822 98.0482 22.0363 97.8769 22.1513C97.7055 22.2663 97.5825 22.424 97.5095 22.6233C97.4356 22.8232 97.3958 23.0301 97.39 23.2439C97.3827 23.5197 97.4165 23.7618 97.4917 23.9695C97.5668 24.1779 97.6882 24.3345 97.856 24.4411C98.0237 24.5476 98.2064 24.603 98.405 24.6083C98.6469 24.6147 98.8526 24.5505 99.0237 24.4166C99.1948 24.2821 99.3137 24.0796 99.3804 23.8076ZM100.212 23.3517C100.236 22.814 100.401 22.399 100.705 22.1076C101.01 21.8161 101.393 21.6809 101.853 21.7012C102.155 21.7145 102.423 21.7982 102.66 21.9516C102.895 22.105 103.071 22.3125 103.186 22.574C103.302 22.8349 103.353 23.1276 103.338 23.4516C103.324 23.7801 103.244 24.0716 103.098 24.3247C102.953 24.5786 102.755 24.7666 102.504 24.8887C102.252 25.0116 101.985 25.0663 101.701 25.0538C101.393 25.0403 101.122 24.9542 100.886 24.7962C100.651 24.6384 100.476 24.4293 100.363 24.1686C100.249 23.9086 100.199 23.6363 100.212 23.3517ZM100.659 23.3789C100.641 23.7693 100.733 24.0813 100.934 24.3148C101.136 24.5485 101.396 24.6726 101.715 24.6868C102.041 24.7011 102.313 24.5995 102.534 24.3823C102.754 24.165 102.873 23.8479 102.891 23.4312C102.903 23.1676 102.869 22.9353 102.788 22.7351C102.707 22.5348 102.582 22.3764 102.414 22.2608C102.246 22.1452 102.054 22.0823 101.839 22.0728C101.533 22.0593 101.266 22.1519 101.036 22.3506C100.806 22.5493 100.68 22.8918 100.659 23.3789ZM103.834 25.1246L104.038 21.8837L105.484 21.9733C105.775 21.9913 105.994 22.0344 106.142 22.1019C106.289 22.1693 106.403 22.2794 106.485 22.4321C106.566 22.5848 106.6 22.7506 106.589 22.9286C106.575 23.1587 106.487 23.3479 106.328 23.4963C106.168 23.6447 105.931 23.73 105.615 23.7536C105.727 23.815 105.81 23.8747 105.866 23.9312C105.985 24.0536 106.095 24.2051 106.196 24.3848L106.705 25.3023L106.165 25.269L105.776 24.5678C105.663 24.3647 105.568 24.2097 105.494 24.1013C105.418 23.9928 105.35 23.9166 105.288 23.8712C105.227 23.8264 105.162 23.7937 105.096 23.773C105.048 23.7601 104.969 23.7499 104.857 23.743L104.358 23.712L104.267 25.1514L103.834 25.1246ZM104.381 23.3409L105.308 23.3983C105.505 23.4105 105.66 23.3997 105.773 23.3658C105.887 23.3326 105.975 23.273 106.038 23.1868C106.101 23.1013 106.136 23.0065 106.142 22.9017C106.152 22.7485 106.105 22.6183 105.999 22.5126C105.894 22.4069 105.721 22.3469 105.48 22.332L104.448 22.2681L104.381 23.3409ZM107.869 25.3781L108.1 22.5211L107.026 22.4351L107.057 22.0554L109.638 22.262L109.607 22.6417L108.533 22.5558L108.301 25.4127L107.869 25.3781ZM109.838 25.5912L110.161 22.3599L112.51 22.5912L112.472 22.9703L110.554 22.7815L110.455 23.7743L112.25 23.9511L112.212 24.3302L110.417 24.1535L110.308 25.2546L112.302 25.451L112.264 25.8302L109.838 25.5912ZM114.151 26.0129L114.597 22.7961L116.936 23.1159L116.883 23.4933L114.974 23.2323L114.837 24.2207L116.624 24.465L116.572 24.8424L114.785 24.5981L114.633 25.6943L116.619 25.9659L116.566 26.3433L114.151 26.0129ZM120.889 25.889L121.3 26.0636C121.155 26.3983 120.952 26.6382 120.691 26.7846C120.429 26.9312 120.131 26.9784 119.795 26.9257C119.447 26.8713 119.176 26.7568 118.98 26.5815C118.785 26.4069 118.652 26.1772 118.58 25.8928C118.509 25.6077 118.498 25.3128 118.546 25.0067C118.599 24.673 118.71 24.3918 118.878 24.1633C119.046 23.9349 119.258 23.7746 119.516 23.6825C119.773 23.5905 120.044 23.5672 120.328 23.6118C120.652 23.6625 120.91 23.7864 121.104 23.9843C121.298 24.1823 121.415 24.4356 121.454 24.7448L121.019 24.7776C120.982 24.533 120.9 24.3457 120.774 24.2174C120.649 24.0883 120.479 24.0073 120.263 23.9734C120.016 23.9347 119.799 23.9611 119.614 24.053C119.429 24.145 119.287 24.2856 119.188 24.4737C119.089 24.6624 119.022 24.8624 118.989 25.0738C118.945 25.3462 118.947 25.5906 118.995 25.8063C119.042 26.0226 119.142 26.1936 119.294 26.3208C119.447 26.448 119.621 26.5266 119.817 26.5573C120.056 26.5948 120.268 26.5577 120.456 26.447C120.643 26.3355 120.787 26.15 120.889 25.889ZM121.842 25.5911C121.949 25.0634 122.176 24.6785 122.522 24.4368C122.868 24.1952 123.267 24.1197 123.719 24.2099C124.015 24.269 124.267 24.3925 124.477 24.58C124.686 24.7674 124.828 24.9992 124.902 25.2753C124.976 25.5506 124.981 25.8477 124.917 26.1656C124.851 26.488 124.727 26.7639 124.545 26.9919C124.362 27.2206 124.137 27.3763 123.87 27.4588C123.603 27.5419 123.33 27.5553 123.052 27.4999C122.749 27.4396 122.495 27.3132 122.286 27.1212C122.078 26.9294 121.937 26.6962 121.865 26.4214C121.794 26.1473 121.786 25.8705 121.842 25.5911ZM122.28 25.686C122.202 26.0692 122.245 26.3914 122.408 26.6529C122.571 26.9144 122.809 27.0768 123.122 27.1392C123.442 27.2029 123.726 27.144 123.978 26.9629C124.228 26.7816 124.395 26.4865 124.478 26.0774C124.53 25.8187 124.532 25.584 124.483 25.3737C124.434 25.1634 124.335 24.988 124.187 24.8482C124.038 24.7084 123.859 24.6171 123.648 24.5749C123.348 24.5151 123.069 24.5659 122.811 24.7273C122.553 24.8887 122.376 25.208 122.28 25.686ZM125.209 26.8511L125.614 26.9038C125.596 27.0673 125.611 27.2076 125.657 27.3255C125.703 27.4426 125.791 27.549 125.922 27.6447C126.052 27.7396 126.209 27.8076 126.39 27.8479C126.551 27.8837 126.698 27.8917 126.832 27.8711C126.966 27.8505 127.072 27.8052 127.151 27.7353C127.23 27.6653 127.281 27.5813 127.303 27.4839C127.325 27.3851 127.316 27.2924 127.275 27.205C127.233 27.1183 127.152 27.0351 127.029 26.9545C126.951 26.9031 126.774 26.8093 126.496 26.674C126.218 26.5387 126.028 26.4275 125.925 26.3395C125.791 26.2259 125.7 26.102 125.652 25.9682C125.604 25.8343 125.596 25.694 125.629 25.5486C125.665 25.3879 125.745 25.2484 125.868 25.13C125.99 25.0109 126.147 24.935 126.339 24.9018C126.531 24.8685 126.734 24.8757 126.949 24.9235C127.185 24.976 127.385 25.06 127.549 25.1761C127.712 25.2915 127.826 25.4336 127.89 25.6028C127.954 25.7713 127.969 25.9495 127.934 26.1371L127.522 26.0778C127.545 25.8732 127.506 25.7057 127.403 25.576C127.301 25.4455 127.127 25.3534 126.882 25.2988C126.626 25.2421 126.429 25.2471 126.292 25.3141C126.154 25.3812 126.07 25.4802 126.041 25.6115C126.015 25.7251 126.035 25.828 126.101 25.9201C126.167 26.0113 126.361 26.1343 126.687 26.2873C127.012 26.441 127.233 26.5605 127.348 26.6465C127.513 26.7724 127.627 26.9099 127.686 27.0601C127.745 27.2096 127.755 27.369 127.717 27.5387C127.679 27.7076 127.595 27.8547 127.464 27.9821C127.333 28.1094 127.168 28.1944 126.967 28.2365C126.767 28.2787 126.553 28.2746 126.325 28.2239C126.037 28.1599 125.805 28.0642 125.629 27.9376C125.453 27.8108 125.329 27.6515 125.256 27.4588C125.182 27.2666 125.167 27.0642 125.209 26.8511ZM128.877 28.7868L129.572 26.005L128.526 25.7471L128.619 25.3773L131.132 25.997L131.039 26.3667L129.993 26.1089L129.298 28.8907L128.877 28.7868ZM133.806 26.7475L134.221 26.8723L133.674 28.6673C133.579 28.9798 133.468 29.2173 133.341 29.3798C133.214 29.5414 133.04 29.6526 132.82 29.7121C132.599 29.7713 132.339 29.7563 132.038 29.6657C131.745 29.578 131.521 29.456 131.366 29.2996C131.21 29.1431 131.122 28.9585 131.1 28.7444C131.079 28.5302 131.118 28.2585 131.218 27.9293L131.765 26.1343L132.18 26.259L131.633 28.0533C131.551 28.3232 131.516 28.5306 131.527 28.673C131.539 28.8161 131.594 28.9411 131.697 29.0468C131.798 29.153 131.937 29.2328 132.114 29.286C132.417 29.377 132.655 29.3733 132.825 29.2753C132.996 29.1766 133.14 28.9325 133.259 28.5418L133.806 26.7475ZM133.976 30.2043L135.008 27.1232L136.383 27.5778C136.66 27.6692 136.86 27.7666 136.986 27.8693C137.111 27.9721 137.193 28.1076 137.232 28.2759C137.271 28.4441 137.262 28.6131 137.205 28.7823C137.132 29.0011 136.999 29.1618 136.806 29.2647C136.613 29.3675 136.362 29.3896 136.051 29.3321C136.143 29.4198 136.208 29.4986 136.247 29.5675C136.331 29.7161 136.398 29.8905 136.449 30.0899L136.704 31.1063L136.192 30.9369L135.997 30.1602C135.94 29.935 135.888 29.761 135.844 29.6372C135.799 29.5132 135.752 29.4221 135.704 29.3624C135.656 29.3036 135.603 29.2556 135.544 29.2188C135.501 29.1942 135.427 29.1641 135.321 29.129L134.846 28.9719L134.387 30.3403L133.976 30.2043ZM134.964 28.6191L135.845 28.9103C136.033 28.9723 136.185 29.0012 136.304 28.9974C136.422 28.9942 136.523 28.9591 136.605 28.8916C136.689 28.8251 136.747 28.7424 136.78 28.6427C136.829 28.4971 136.817 28.3592 136.742 28.2301C136.667 28.1011 136.515 27.9992 136.287 27.9234L135.306 27.5993L134.964 28.6191ZM136.742 31.1316L139.128 28.5857L139.569 28.7623L139.581 32.2684L139.124 32.0855L139.144 31.0322L137.867 30.5209L137.168 31.3021L136.742 31.1316ZM138.116 30.2443L139.15 30.6581L139.173 29.6965C139.18 29.4046 139.193 29.1661 139.21 28.9807C139.089 29.1603 138.955 29.3307 138.808 29.4934L138.116 30.2443Z" fill="#0F4C70"/>
<path fill-rule="evenodd" clip-rule="evenodd" d="M47.4323 29.4683C46.9931 29.4683 46.6371 29.8219 46.6371 30.2581C46.6371 30.6943 46.9931 31.048 47.4323 31.048C47.8715 31.048 48.2275 30.6943 48.2275 30.2581C48.2275 29.8219 47.8715 29.4683 47.4323 29.4683Z" fill="#0F4C70"/>
<path fill-rule="evenodd" clip-rule="evenodd" d="M45.7121 31.2133C45.4159 31.2133 45.1758 31.4518 45.1758 31.746C45.1758 32.0403 45.4159 32.2788 45.7121 32.2788C46.0084 32.2788 46.2485 32.0403 46.2485 31.746C46.2485 31.4518 46.0084 31.2133 45.7121 31.2133Z" fill="#0F4C70"/>
<path fill-rule="evenodd" clip-rule="evenodd" d="M76.8747 64.1141L79.592 61.1056L80.1085 61.3015L80.1976 65.3749L79.6631 65.172L79.6634 63.9479L78.1688 63.3809L77.3729 64.3032L76.8747 64.1141ZM78.4526 63.0541L79.6621 63.513L79.6679 62.3953C79.6706 62.0559 79.6807 61.7786 79.6965 61.5627C79.5593 61.7739 79.4073 61.9748 79.2396 62.167L78.4526 63.0541ZM80.6366 65.4284L81.6171 61.7827L82.1041 61.9118L81.2387 65.1299L83.0434 65.6087L82.9284 66.0364L80.6366 65.4284ZM84.0564 66.2544L84.7759 63.0011L83.5527 62.7343L83.6483 62.3019L86.5871 62.9429L86.4914 63.3753L85.2682 63.1085L84.5488 66.3619L84.0564 66.2544ZM85.5009 66.5403L87.4572 62.9962L88.0049 63.0701L89.0256 67.0164L88.4586 66.9398L88.1783 65.7477L86.5929 65.5336L86.0294 66.6117L85.5009 66.5403ZM86.7943 65.1513L88.0773 65.3246L87.8267 64.2349C87.7515 63.9038 87.6977 63.6315 87.6637 63.4177C87.5786 63.6544 87.4766 63.8844 87.3574 64.1094L86.7943 65.1513ZM93.3749 66.0102L93.8692 66.1703C93.7363 66.5725 93.5261 66.8709 93.2387 67.0672C92.9514 67.2635 92.6105 67.3488 92.216 67.3221C91.8084 67.2946 91.4822 67.1899 91.2377 67.0069C90.9931 66.8249 90.8153 66.5726 90.7035 66.2507C90.5918 65.928 90.5477 65.5877 90.5723 65.2285C90.599 64.8368 90.6974 64.5 90.8683 64.2183C91.0392 63.9367 91.2688 63.7295 91.5571 63.5966C91.8454 63.4638 92.1568 63.4091 92.4903 63.4315C92.8697 63.4572 93.1817 63.5742 93.4262 63.7835C93.6716 63.993 93.8333 64.2741 93.911 64.628L93.4107 64.7104C93.342 64.4311 93.2278 64.2227 93.0695 64.087C92.9113 63.9504 92.7056 63.874 92.4523 63.8569C92.162 63.8373 91.9137 63.8901 91.7093 64.0154C91.5048 64.1407 91.3543 64.3181 91.2599 64.5459C91.1645 64.7745 91.1082 65.0129 91.0913 65.2609C91.0694 65.5807 91.097 65.8634 91.1742 66.1082C91.2514 66.3537 91.3848 66.5415 91.5744 66.6731C91.7639 66.8048 91.9734 66.8779 92.2037 66.8935C92.4843 66.9124 92.7263 66.8477 92.9315 66.7005C93.1366 66.5523 93.2844 66.3228 93.3749 66.0102ZM94.2781 65.55C94.283 64.9245 94.4567 64.4357 94.7982 64.0843C95.1396 63.733 95.578 63.5598 96.1139 63.5639C96.465 63.5667 96.7801 63.6526 97.0609 63.8208C97.3409 63.9889 97.554 64.2225 97.6993 64.5215C97.8447 64.8195 97.9163 65.1573 97.9133 65.5342C97.9103 65.9162 97.8298 66.2582 97.6718 66.5583C97.5138 66.8593 97.2917 67.0859 97.0058 67.2383C96.7189 67.3916 96.4105 67.4665 96.0806 67.4639C95.7224 67.4611 95.4039 67.3726 95.1231 67.1992C94.8432 67.0257 94.631 66.7904 94.4883 66.4924C94.3455 66.1952 94.2755 65.8811 94.2781 65.55ZM94.7981 65.5627C94.7945 66.0168 94.9146 66.3753 95.1585 66.6381C95.4023 66.9008 95.7098 67.0341 96.0813 67.037C96.4599 67.0399 96.7713 66.9106 97.0184 66.649C97.2645 66.3873 97.3895 66.0141 97.3933 65.5292C97.3957 65.2227 97.3457 64.9544 97.2431 64.7252C97.1405 64.496 96.9889 64.3174 96.7891 64.1902C96.5885 64.0631 96.3635 63.9981 96.1132 63.9961C95.7576 63.9934 95.4507 64.1122 95.1923 64.3526C94.9339 64.5931 94.8025 64.9962 94.7981 65.5627ZM98.3136 66.161L98.7828 66.0932C98.8153 66.2815 98.876 66.4339 98.9649 66.5513C99.0537 66.6679 99.1863 66.7592 99.3626 66.8253C99.5389 66.8904 99.7353 66.9175 99.9508 66.9058C100.142 66.8953 100.309 66.8582 100.453 66.7931C100.596 66.7282 100.701 66.6442 100.767 66.5412C100.833 66.4381 100.863 66.3284 100.857 66.2125C100.85 66.095 100.81 65.9943 100.736 65.9095C100.663 65.8255 100.545 65.758 100.382 65.7061C100.279 65.6731 100.05 65.6239 99.6967 65.5596C99.3432 65.4953 99.0952 65.4305 98.9516 65.3644C98.7653 65.2795 98.6246 65.1693 98.5286 65.0346C98.4317 64.9001 98.3789 64.7455 98.3694 64.5727C98.3588 64.3815 98.4037 64.2004 98.5032 64.0296C98.6027 63.858 98.7539 63.724 98.9584 63.6266C99.1621 63.5292 99.392 63.4737 99.6472 63.4597C99.928 63.4445 100.179 63.4757 100.398 63.5543C100.618 63.6322 100.79 63.7556 100.916 63.9247C101.041 64.093 101.114 64.2878 101.135 64.5084L100.655 64.5714C100.616 64.3352 100.518 64.1601 100.363 64.0472C100.207 63.9334 99.9825 63.8849 99.6911 63.9008C99.3873 63.9173 99.1686 63.9846 99.0361 64.1027C98.9035 64.2207 98.8411 64.3579 98.8498 64.514C98.8572 64.6491 98.9128 64.7577 99.0157 64.8401C99.1176 64.9217 99.3742 64.9983 99.7873 65.0673C100.2 65.1372 100.485 65.2017 100.64 65.2619C100.866 65.3508 101.036 65.4691 101.15 65.6186C101.264 65.7672 101.325 65.9425 101.337 66.1442C101.348 66.3451 101.301 66.5358 101.195 66.7193C101.089 66.9028 100.931 67.0495 100.72 67.1595C100.509 67.2695 100.269 67.3318 99.9981 67.3466C99.6555 67.3652 99.3657 67.3309 99.1289 67.2444C98.8912 67.1579 98.7019 67.0187 98.5592 66.8258C98.4158 66.634 98.3345 66.4123 98.3136 66.161ZM103.041 67.0693L102.655 63.7606L101.411 63.9038L101.36 63.464L104.349 63.1199L104.4 63.5597L103.156 63.703L103.542 67.0117L103.041 67.0693ZM107.203 62.69L107.701 62.6138L108.035 64.7677C108.093 65.1427 108.097 65.4471 108.046 65.6806C107.994 65.9133 107.868 66.1165 107.668 66.2885C107.466 66.4607 107.186 66.5747 106.824 66.6299C106.473 66.6836 106.177 66.6677 105.935 66.5811C105.692 66.4946 105.507 66.3453 105.376 66.1316C105.245 65.9178 105.149 65.6135 105.088 65.2185L104.754 63.0646L105.252 62.9884L105.586 65.1414C105.636 65.4652 105.704 65.7002 105.788 65.8437C105.872 65.9882 105.993 66.0913 106.154 66.1512C106.314 66.2122 106.5 66.2263 106.713 66.1938C107.076 66.1382 107.323 66.016 107.452 65.8282C107.581 65.6396 107.609 65.3119 107.537 64.843L107.203 62.69ZM109.104 66.1783L108.195 62.5141L109.831 62.1143C110.159 62.0339 110.418 62.006 110.605 62.0299C110.792 62.0538 110.957 62.1365 111.101 62.2778C111.244 62.4191 111.34 62.5909 111.39 62.7922C111.455 63.0523 111.424 63.2924 111.299 63.512C111.174 63.7316 110.941 63.908 110.599 64.0432C110.744 64.0728 110.857 64.1104 110.939 64.1537C111.114 64.2484 111.289 64.3784 111.464 64.5428L112.349 65.3847L111.739 65.5338L111.063 64.8906C110.866 64.7044 110.707 64.5651 110.586 64.4707C110.464 64.3766 110.362 64.3156 110.277 64.2866C110.193 64.2582 110.111 64.2441 110.031 64.2437C109.973 64.2461 109.881 64.2621 109.755 64.293L109.19 64.4312L109.593 66.0586L109.104 66.1783ZM109.086 64.0116L110.133 63.7554C110.357 63.7008 110.525 63.6353 110.639 63.5586C110.753 63.4828 110.83 63.3861 110.869 63.2689C110.909 63.1523 110.915 63.0351 110.886 62.9166C110.843 62.7434 110.744 62.6154 110.591 62.5346C110.437 62.4537 110.224 62.4469 109.951 62.5135L108.785 62.7987L109.086 64.0116ZM112.362 65.3318L112.484 61.2919L113.006 61.1107L115.72 64.1659L115.18 64.3534L114.385 63.4179L112.875 63.9423L112.866 65.157L112.362 65.3318ZM112.879 63.5108L114.101 63.0864L113.38 62.2287C113.161 61.9677 112.989 61.7493 112.861 61.5742C112.893 61.8235 112.908 62.0744 112.904 62.3287L112.879 63.5108Z" fill="#0F4C70"/>
<path fill-rule="evenodd" clip-rule="evenodd" d="M77.1355 60.874C76.6962 60.874 76.3402 61.2276 76.3402 61.6638C76.3402 62.1001 76.6962 62.4536 77.1355 62.4536C77.5746 62.4536 77.9307 62.1001 77.9307 61.6638C77.9307 61.2276 77.5746 60.874 77.1355 60.874Z" fill="#0F4C70"/>
<path fill-rule="evenodd" clip-rule="evenodd" d="M115.214 60.874C114.774 60.874 114.418 61.2276 114.418 61.6638C114.418 62.1001 114.774 62.4536 115.214 62.4536C115.653 62.4536 116.009 62.1001 116.009 61.6638C116.009 61.2276 115.653 60.874 115.214 60.874Z" fill="#0F4C70"/>
<path fill-rule="evenodd" clip-rule="evenodd" d="M98.6884 13.0029C117.431 25.4697 138.984 5.88178 149.292 23.7124C167.756 18.2531 182.081 28.9599 183.291 44.6029C183.871 52.1069 174.354 69.5699 149.514 64.3642C137.085 80.3336 119.256 63.7521 95.1373 74.7982C111.117 60.6169 139.453 76.9659 147.739 63.7397C144.253 61.2718 144.419 58.248 145.696 57.6678C146.806 57.1631 150.121 57.7938 150.314 62.8579C175.274 67.7203 180.267 52.3592 180.317 44.554C180.367 36.7487 173.816 19.2479 149.692 24.9062C150.002 28.9365 146.917 32.1453 145.25 30.8518C143.921 29.8202 145.138 26.1051 148.035 24.0981C142.239 11.4355 110.846 26.327 98.6884 13.0029ZM148.267 25.8041C147.639 26.2145 145.41 28.2765 146.368 29.0047C147.462 29.8371 148.324 26.825 148.267 25.8041ZM148.428 62.1251C147.8 61.7146 145.571 59.6527 146.529 58.9245C147.623 58.0921 148.485 61.1041 148.428 62.1251Z" fill="#1197B8"/>
<path d="M60.1855 49.3788L60.899 48.3454H63.2476L59.7989 53.4044L59.6503 53.6653C59.353 54.1966 59.2044 54.5412 59.2044 54.6937C59.2044 55.0875 59.3728 55.2843 59.7098 55.2843C59.9278 55.2449 60.1705 55.1318 60.4381 54.9496C60.7057 54.7627 61.1269 54.3886 61.7016 53.8326C62.2764 53.2764 62.8413 52.6661 63.3962 52.0019L63.7531 51.5343L63.9018 51.3277L63.9612 51.2685L64.0504 51.2391L64.1693 51.3277C64.1693 51.3866 64.0653 51.5491 63.8571 51.8099C63.6491 52.0757 63.4062 52.3857 63.1287 52.7352L62.7719 53.1485C61.8603 54.1425 61.1022 54.8561 60.4977 55.2892C59.893 55.7175 59.3629 55.9536 58.907 55.9929C57.7377 55.9929 57.153 55.5059 57.153 54.5363C57.153 54.3443 57.1926 54.1082 57.2718 53.8374L56.8855 54.2558C55.934 55.2154 55.2105 55.742 54.7152 55.8453C54.2196 55.9437 53.9322 55.9929 53.853 55.9929C53.7737 55.9929 53.7142 55.9929 53.6745 55.9929C53.1791 55.9929 52.7827 55.8158 52.4853 55.4616C52.188 55.1023 52.0395 54.6003 52.0395 53.9457C52.0395 53.3159 52.3415 52.5826 52.9462 51.7558C53.5507 50.9241 54.284 50.2203 55.1462 49.6348C56.0084 49.0541 56.6872 48.6603 57.1827 48.4634C57.6782 48.2666 58.1638 48.1681 58.6394 48.1681C59.1548 48.1681 59.561 48.2863 59.8585 48.5226C60.1558 48.7587 60.2647 49.0442 60.1855 49.3788ZM54.2097 54.4576C54.269 54.9104 54.5021 55.1366 54.9083 55.1366C55.047 55.1366 55.2403 55.0826 55.4931 54.9744C55.7458 54.866 55.9984 54.6937 56.2511 54.4576C56.5039 54.2213 56.8457 53.8571 57.2718 53.365L57.5791 53.0107L58.2184 52.184C58.8229 51.4162 59.2341 50.8208 59.4471 50.3976C59.6602 49.9743 59.7692 49.5854 59.7692 49.2311C59.7692 49.0541 59.6949 48.9064 59.5463 48.7883C59.3977 48.6701 59.234 48.6308 59.0557 48.6701C58.8178 48.7095 58.5948 48.7883 58.3869 48.9064C58.1786 49.0244 57.9062 49.2214 57.5693 49.497C57.2323 49.7726 56.8657 50.1318 56.4692 50.5747C56.0727 51.0176 55.6962 51.4801 55.3394 51.9625C54.9826 52.4448 54.6904 52.9221 54.4623 53.3945C54.2345 53.867 54.1503 54.2213 54.2097 54.4576ZM64.1396 50.8846L69.0154 43.7095C69.2929 43.2961 69.4316 43.0107 69.4316 42.8532C69.4316 42.7941 69.4316 42.686 69.4316 42.5285H71.7505C71.7703 42.6071 71.7802 42.7056 71.7802 42.8237C71.7802 43.119 71.6019 43.5027 71.2401 43.9703L67.5488 49.4036C67.8659 49.1279 68.2671 48.872 68.7427 48.6407C69.2186 48.4044 69.6941 48.2568 70.1698 48.1978C70.7101 48.1583 71.1509 48.3011 71.4979 48.6258C71.8447 48.9556 72.0181 49.4133 72.0181 50.0039C72.0181 50.2056 71.924 50.7027 71.7356 51.5047C71.5473 52.3019 71.0964 53.0156 70.3829 53.6356C69.6693 54.2607 69.1888 54.6544 68.941 54.8218C68.6932 54.989 68.2422 55.2351 67.5883 55.5648C66.9342 55.8896 66.2802 56.052 65.6261 56.052C65.4873 56.052 65.3684 56.052 65.2695 56.052C64.5559 56.052 63.9859 55.8601 63.5598 55.4762C63.1337 55.0925 62.9207 54.5954 62.9207 53.9851C62.9207 53.867 62.9652 53.5865 63.0545 53.1437C63.1436 52.7007 63.4063 52.0953 63.8423 51.3277L64.1396 50.8846ZM64.4666 54.9595C64.526 55.3926 64.7639 55.6092 65.1802 55.6092C65.3981 55.6092 65.6657 55.5402 65.9829 55.4024C66.3 55.2646 66.632 55.0187 66.9788 54.6642C67.3256 54.3099 67.7667 53.7588 68.3019 53.0107L69.1044 51.7411L69.5802 50.7961C69.8577 50.1465 69.9965 49.6741 69.9965 49.3788C69.9965 49.1818 69.9369 49.0244 69.8179 48.9064C69.6992 48.7883 69.5306 48.7292 69.3126 48.7292C69.2135 48.7292 69.0847 48.7587 68.9261 48.8178C68.7676 48.8768 68.5991 48.9604 68.4208 49.0687C68.2422 49.1771 68.0193 49.3542 67.7517 49.6002C67.4843 49.8464 67.2266 50.1122 66.9788 50.3976C66.731 50.6831 66.4981 50.9783 66.2802 51.2834C66.0621 51.5885 65.8391 51.928 65.6112 52.3019C65.3833 52.676 65.2494 52.9025 65.2098 52.9811L65.1208 53.1583L64.7045 54.0442C64.5062 54.4576 64.427 54.7627 64.4666 54.9595ZM72.1569 52.8582L74.4857 49.4673C74.7433 49.0737 74.8723 48.7982 74.8723 48.6407C74.8723 48.5619 74.8425 48.4634 74.783 48.3454H77.2804C77.32 48.5226 77.32 48.6849 77.2804 48.8326C77.2408 48.9803 77.102 49.2214 76.8641 49.5559L74.1884 53.5127L73.9803 53.8374C73.7425 54.2508 73.6235 54.5954 73.6235 54.871C73.584 55.186 73.7127 55.3434 74.0101 55.3434C74.1488 55.3238 74.2578 55.2991 74.337 55.2696C74.4164 55.24 74.5551 55.1613 74.7533 55.0333C74.9516 54.9054 75.2834 54.6446 75.7493 54.2508C76.2151 53.8571 76.7155 53.3749 77.2507 52.8039L77.6966 52.243C77.9543 51.869 78.1376 51.6179 78.2466 51.49C78.3556 51.362 78.4398 51.2783 78.4992 51.2391L78.6182 51.3277L78.5885 51.4457L78.5291 51.5933L78.4398 51.7115L78.0533 52.243L77.9047 52.4201L77.3102 53.0993C76.2794 54.2213 75.4222 54.994 74.7385 55.4172C74.0547 55.8405 73.4254 56.052 72.8506 56.052C72.4146 56.052 72.0627 55.9191 71.7952 55.6535C71.5276 55.3877 71.3938 55.0482 71.3938 54.6348C71.3938 54.492 71.4087 54.3639 71.4384 54.246C71.4682 54.1278 71.4979 54.0294 71.5276 53.9507C71.5573 53.8719 71.6019 53.7833 71.6564 53.6849L71.9834 53.1239L72.1569 52.8582ZM76.3587 46.2194C76.3191 46.0618 76.2993 45.9438 76.2993 45.8649C76.2993 45.4516 76.547 45.0432 77.0425 44.6396C77.5381 44.236 77.9642 44.0342 78.3209 44.0342C78.5984 43.995 78.8312 44.0688 79.0197 44.2558C79.2079 44.4428 79.2823 44.6741 79.2427 44.9498C79.2427 45.1465 79.1534 45.3926 78.975 45.6879L78.7967 45.9832C78.4794 46.3572 78.1822 46.5934 77.9047 46.6919C77.6272 46.7902 77.3895 46.8394 77.1911 46.8394C76.7353 46.8394 76.4578 46.6328 76.3587 46.2194ZM85.1885 49.3788L85.9021 48.3454H88.2507L84.802 53.4044L84.6533 53.6653C84.3561 54.1966 84.2075 54.5412 84.2075 54.6937C84.2075 55.0875 84.3758 55.2843 84.713 55.2843C84.9308 55.2449 85.1737 55.1318 85.4412 54.9496C85.7088 54.7627 86.1299 54.3886 86.7047 53.8326C87.2795 53.2764 87.8444 52.6661 88.3994 52.0019L88.7562 51.5343L88.9048 51.3277L88.9642 51.2685L89.0534 51.2391L89.1724 51.3277C89.1724 51.3866 89.0684 51.5491 88.8602 51.8099C88.6522 52.0757 88.4092 52.3857 88.1318 52.7352L87.7751 53.1485C86.8634 54.1425 86.1052 54.8561 85.5008 55.2892C84.8961 55.7175 84.366 55.9536 83.9101 55.9929C82.7408 55.9929 82.1561 55.5059 82.1561 54.5363C82.1561 54.3443 82.1958 54.1082 82.2749 53.8374L81.8885 54.2558C80.9371 55.2154 80.2137 55.742 79.7182 55.8453C79.2226 55.9437 78.9353 55.9929 78.8561 55.9929C78.7767 55.9929 78.7173 55.9929 78.6776 55.9929C78.1822 55.9929 77.7857 55.8158 77.4884 55.4616C77.1911 55.1023 77.0425 54.6003 77.0425 53.9457C77.0425 53.3159 77.3447 52.5826 77.9493 51.7558C78.5538 50.9241 79.2871 50.2203 80.1493 49.6348C81.0115 49.0541 81.6902 48.6603 82.1858 48.4634C82.6812 48.2666 83.1669 48.1681 83.6426 48.1681C84.158 48.1681 84.5641 48.2863 84.8616 48.5226C85.1589 48.7587 85.2677 49.0442 85.1885 49.3788ZM79.2128 54.4576C79.2722 54.9104 79.5051 55.1366 79.9113 55.1366C80.0501 55.1366 80.2433 55.0826 80.4962 54.9744C80.7489 54.866 81.0015 54.6937 81.2542 54.4576C81.507 54.2213 81.8488 53.8571 82.2749 53.365L82.5823 53.0107L83.2215 52.184C83.8259 51.4162 84.2372 50.8208 84.4502 50.3976C84.6633 49.9743 84.7723 49.5854 84.7723 49.2311C84.7723 49.0541 84.698 48.9064 84.5494 48.7883C84.4007 48.6701 84.2372 48.6308 84.0588 48.6701C83.8209 48.7095 83.5979 48.7883 83.3899 48.9064C83.1817 49.0244 82.9093 49.2214 82.5723 49.497C82.2353 49.7726 81.8687 50.1318 81.4723 50.5747C81.0758 51.0176 80.6992 51.4801 80.3426 51.9625C79.9857 52.4448 79.6934 52.9221 79.4655 53.3945C79.2376 53.867 79.1533 54.2213 79.2128 54.4576ZM86.229 55.7863L90.7184 49.1721C90.9165 48.8965 90.986 48.621 90.9265 48.3454H93.3643C93.4239 48.6407 93.3544 48.926 93.1563 49.2017L92.2941 50.3238L92.5022 50.1465L93.067 49.6741C93.3643 49.4378 93.6071 49.2557 93.7955 49.1279C93.9837 48.9999 94.3058 48.7982 94.7616 48.5226C95.2175 48.2469 95.7527 48.1091 96.3671 48.1091C96.4861 48.1091 96.7686 48.1681 97.2145 48.2863C97.6604 48.4044 97.8834 48.7686 97.8834 49.3788C97.8834 49.497 97.819 49.7086 97.6901 50.0137C97.5612 50.3187 97.3234 50.737 96.9765 51.2685C96.6297 51.8001 96.154 52.4546 95.5495 53.2322C94.9451 54.0097 94.6427 54.5167 94.6427 54.7528C94.6823 54.9889 94.841 55.1071 95.1183 55.1071C95.1977 55.1071 95.2969 55.0826 95.4159 55.0333C95.5346 54.9841 95.6833 54.9104 95.8617 54.8119C96.0401 54.7134 96.2333 54.5856 96.4414 54.428C96.6496 54.2704 96.9915 53.9802 97.4672 53.557C97.9428 53.1337 98.3194 52.7105 98.5969 52.2873C98.8744 51.864 99.0676 51.5983 99.1765 51.49C99.2856 51.3817 99.3797 51.298 99.4591 51.2391C99.4986 51.2391 99.5383 51.2882 99.578 51.3867C99.5583 51.4852 99.5136 51.5786 99.4441 51.6623C99.3748 51.7509 99.1915 51.9723 98.8942 52.3266L97.5861 53.7931L97.4374 53.9408L97.0509 54.2901C96.7537 54.5461 96.5208 54.7332 96.3523 54.8463C96.1837 54.9644 95.9162 55.1318 95.5495 55.3483C95.1828 55.5648 94.8509 55.7223 94.5536 55.8306C94.2561 55.9389 93.9688 55.9929 93.6915 55.9929C93.3148 55.9929 93.0026 55.8798 92.7548 55.6535C92.5072 55.427 92.3832 55.1514 92.3832 54.8169C92.3832 54.738 92.4377 54.5264 92.5468 54.1869C92.6558 53.8425 92.8392 53.4832 93.1066 53.1091C93.3694 52.74 94.1324 51.7312 95.391 50.0825L95.6238 49.6987C95.6833 49.5806 95.7131 49.4624 95.7131 49.3494C95.7131 49.0343 95.5644 48.8768 95.272 48.8768C95.1531 48.8768 95.0392 48.8867 94.9301 48.9064C94.8261 48.926 94.6626 48.9851 94.4446 49.0836C94.2265 49.1819 94.068 49.2657 93.959 49.3345C93.85 49.4036 93.726 49.4871 93.5873 49.5854L93.1761 49.9104L92.854 50.176L92.408 50.5894L91.9076 51.0618L88.6769 55.7715L86.229 55.7863ZM106.148 49.3788L106.862 48.3454H109.211L105.762 53.4044L105.613 53.6653C105.316 54.1966 105.167 54.5412 105.167 54.6937C105.167 55.0875 105.336 55.2843 105.673 55.2843C105.891 55.2449 106.133 55.1318 106.401 54.9496C106.669 54.7627 107.09 54.3886 107.665 53.8326C108.239 53.2764 108.804 52.6661 109.359 52.0019L109.716 51.5343L109.865 51.3277L109.924 51.2685L110.013 51.2391L110.132 51.3277C110.132 51.3866 110.028 51.5491 109.82 51.8099C109.612 52.0757 109.369 52.3857 109.092 52.7352L108.735 53.1485C107.823 54.1425 107.065 54.8561 106.461 55.2892C105.856 55.7175 105.326 55.9536 104.87 55.9929C103.701 55.9929 103.116 55.5059 103.116 54.5363C103.116 54.3443 103.156 54.1082 103.235 53.8374L102.848 54.2558C101.897 55.2154 101.174 55.742 100.678 55.8453C100.183 55.9437 99.8951 55.9929 99.8159 55.9929C99.7365 55.9929 99.6772 55.9929 99.6374 55.9929C99.1419 55.9929 98.7455 55.8158 98.4483 55.4616C98.151 55.1023 98.0022 54.6003 98.0022 53.9457C98.0022 53.3159 98.3045 52.5826 98.9091 51.7558C99.5136 50.9241 100.247 50.2203 101.109 49.6348C101.971 49.0541 102.65 48.6603 103.146 48.4634C103.641 48.2666 104.127 48.1681 104.602 48.1681C105.118 48.1681 105.524 48.2863 105.821 48.5226C106.119 48.7587 106.228 49.0442 106.148 49.3788ZM100.173 54.4576C100.232 54.9104 100.465 55.1366 100.871 55.1366C101.01 55.1366 101.203 55.0826 101.456 54.9744C101.709 54.866 101.961 54.6937 102.214 54.4576C102.467 54.2213 102.809 53.8571 103.235 53.365L103.542 53.0107L104.181 52.184C104.786 51.4162 105.197 50.8208 105.41 50.3976C105.623 49.9743 105.732 49.5854 105.732 49.2311C105.732 49.0541 105.658 48.9064 105.509 48.7883C105.361 48.6701 105.197 48.6308 105.019 48.6701C104.781 48.7095 104.558 48.7883 104.35 48.9064C104.142 49.0244 103.869 49.2214 103.532 49.497C103.195 49.7726 102.829 50.1318 102.432 50.5747C102.036 51.0176 101.659 51.4801 101.302 51.9625C100.946 52.4448 100.653 52.9221 100.425 53.3945C100.197 53.867 100.113 54.2213 100.173 54.4576Z" fill="#5A9ED5"/>
<path d="M124.489 52.8582L126.818 49.4673C127.076 49.0737 127.205 48.7982 127.205 48.6407C127.205 48.5619 127.175 48.4634 127.115 48.3454H129.613C129.652 48.5226 129.652 48.6849 129.613 48.8326C129.573 48.9803 129.434 49.2214 129.196 49.5559L126.521 53.5127L126.313 53.8374C126.075 54.2508 125.956 54.5954 125.956 54.871C125.916 55.186 126.045 55.3434 126.342 55.3434C126.481 55.3238 126.59 55.2991 126.669 55.2696C126.749 55.2401 126.887 55.1613 127.086 55.0333C127.284 54.9054 127.616 54.6446 128.082 54.2508C128.547 53.8571 129.048 53.3749 129.583 52.804L130.029 52.2431C130.287 51.869 130.47 51.618 130.579 51.49C130.688 51.3621 130.772 51.2783 130.832 51.2391L130.951 51.3277L130.921 51.4457L130.861 51.5933L130.772 51.7115L130.386 52.2431L130.237 52.4201L129.642 53.0993C128.612 54.2213 127.754 54.994 127.071 55.4172C126.387 55.8405 125.758 56.0521 125.183 56.0521C124.747 56.0521 124.395 55.9191 124.127 55.6535C123.86 55.3877 123.726 55.0482 123.726 54.6348C123.726 54.492 123.741 54.364 123.771 54.246C123.801 54.1279 123.83 54.0294 123.86 53.9507C123.89 53.8719 123.934 53.7833 123.989 53.685L124.316 53.124L124.489 52.8582ZM128.691 46.2194C128.651 46.0618 128.632 45.9438 128.632 45.8649C128.632 45.4516 128.879 45.0433 129.375 44.6396C129.87 44.236 130.297 44.0342 130.653 44.0342C130.931 43.995 131.164 44.0688 131.352 44.2558C131.54 44.4429 131.615 44.6742 131.575 44.9498C131.575 45.1465 131.486 45.3927 131.307 45.6879L131.129 45.9832C130.812 46.3572 130.514 46.5934 130.237 46.6919C129.959 46.7902 129.722 46.8394 129.523 46.8394C129.068 46.8394 128.79 46.6328 128.691 46.2194ZM132.348 52.4596L132.199 52.6956L132.051 52.991C132.011 53.0698 131.942 53.2322 131.842 53.4782C131.743 53.7193 131.674 53.9163 131.634 54.0639C131.595 54.2115 131.575 54.3639 131.575 54.5216C131.575 55.1268 131.942 55.432 132.68 55.432C133.299 55.432 133.933 55.2351 134.578 54.8414C135.227 54.4478 135.98 53.7785 136.837 52.8335L137.273 52.2431C137.407 52.0462 137.551 51.8542 137.694 51.6671C137.843 51.4801 137.962 51.3376 138.061 51.2391L138.175 51.3277L138.106 51.5638L137.967 51.682L137.551 52.2724L137.461 52.3906L136.872 53.1288C135.92 54.1919 135.138 54.9152 134.513 55.2991C133.894 55.683 133.339 55.9045 132.858 55.9634C132.373 56.0226 132.041 56.0521 131.862 56.0521C131.57 56.0521 131.342 56.0521 131.183 56.0521C130.668 55.9733 130.242 55.742 129.91 55.3581C129.573 54.9744 129.404 54.5264 129.404 54.0147C129.404 53.7588 129.528 53.2223 129.776 52.4054C130.024 51.5885 130.633 50.8405 131.604 50.1613C132.576 49.4822 133.235 49.0589 133.582 48.8916C133.928 48.7243 134.355 48.5619 134.86 48.4044C135.365 48.2469 135.846 48.1681 136.302 48.1681C136.579 48.1681 136.857 48.1928 137.134 48.2419C137.412 48.2913 137.62 48.3945 137.759 48.5521C137.897 48.7095 137.967 48.9113 137.967 49.1672C137.967 49.4036 137.878 49.6593 137.699 49.9348C137.521 50.2056 137.238 50.4812 136.852 50.7569C136.465 51.0324 135.866 51.3424 135.053 51.6967C134.241 52.051 133.339 52.307 132.348 52.4596ZM132.497 52.1249C132.952 52.0658 133.502 51.9132 134.147 51.6721C134.791 51.426 135.281 51.1405 135.618 50.806C135.955 50.4763 136.183 50.2301 136.302 50.0727C136.421 49.9203 136.54 49.7429 136.659 49.5462C136.778 49.3542 136.837 49.1573 136.837 48.9604C136.837 48.6308 136.669 48.4832 136.332 48.5226C136.074 48.5226 135.801 48.6259 135.514 48.8277C135.227 49.0343 134.726 49.4871 134.013 50.1908C133.656 50.5057 133.309 50.8947 132.972 51.3621L132.497 52.1249ZM136.976 52.8582L139.305 49.4673C139.562 49.0737 139.691 48.7982 139.691 48.6407C139.691 48.5619 139.661 48.4634 139.602 48.3454H142.099C142.139 48.5226 142.139 48.6849 142.099 48.8326C142.06 48.9803 141.921 49.2214 141.683 49.5559L139.007 53.5127L138.799 53.8374C138.561 54.2508 138.442 54.5954 138.442 54.871C138.403 55.186 138.532 55.3434 138.829 55.3434C138.968 55.3238 139.077 55.2991 139.156 55.2696C139.235 55.2401 139.374 55.1613 139.572 55.0333C139.771 54.9054 140.102 54.6446 140.568 54.2508C141.034 53.8571 141.534 53.3749 142.07 52.804L142.516 52.2431C142.773 51.869 142.957 51.618 143.066 51.49C143.175 51.3621 143.259 51.2783 143.318 51.2391L143.437 51.3277L143.407 51.4457L143.348 51.5933L143.259 51.7115L142.872 52.2431L142.724 52.4201L142.129 53.0993C141.098 54.2213 140.241 54.994 139.557 55.4172C138.874 55.8405 138.244 56.0521 137.67 56.0521C137.233 56.0521 136.882 55.9191 136.614 55.6535C136.347 55.3877 136.213 55.0482 136.213 54.6348C136.213 54.492 136.228 54.364 136.257 54.246C136.287 54.1279 136.317 54.0294 136.347 53.9507C136.376 53.8719 136.421 53.7833 136.475 53.685L136.802 53.124L136.976 52.8582ZM141.178 46.2194C141.138 46.0618 141.118 45.9438 141.118 45.8649C141.118 45.4516 141.366 45.0433 141.861 44.6396C142.357 44.236 142.783 44.0342 143.14 44.0342C143.417 43.995 143.65 44.0688 143.839 44.2558C144.027 44.4429 144.101 44.6742 144.062 44.9498C144.062 45.1465 143.972 45.3927 143.794 45.6879L143.616 45.9832C143.298 46.3572 143.001 46.5934 142.724 46.6919C142.446 46.7902 142.208 46.8394 142.01 46.8394C141.554 46.8394 141.277 46.6328 141.178 46.2194ZM146.618 49.5462L146.321 49.6643C145.964 49.7627 145.667 49.8119 145.429 49.8119C145.191 49.8119 144.914 49.7479 144.597 49.6151L144.002 50.3533L143.645 50.8552L143.259 51.4457C143.219 51.5245 143.179 51.5737 143.14 51.5933C143.1 51.6131 143.07 51.623 143.051 51.623L142.932 51.5343C142.951 51.4359 142.971 51.367 142.991 51.3277L143.323 50.8552L143.417 50.7075C143.858 50.1318 144.255 49.5116 144.597 48.8425L144.73 48.5767L144.894 48.1583C145.29 48.4979 145.776 48.6702 146.351 48.6702C146.668 48.6702 146.906 48.6603 147.064 48.6407C147.223 48.6211 147.5 48.5521 147.897 48.4291L148.551 48.2518L148.788 48.1583L148.402 48.6308L147.986 49.1033L146.856 50.5501C146.043 51.6917 145.533 52.4695 145.325 52.8828C145.117 53.296 145.013 53.6996 145.013 54.0934C145.013 54.4675 145.211 54.6544 145.607 54.6544C145.746 54.6544 145.885 54.6198 146.024 54.5413L146.41 54.305L146.767 53.9802L147.094 53.685C147.51 53.3109 147.812 53.0206 148.001 52.8138C148.189 52.6072 148.417 52.3218 148.684 51.9477C148.952 51.5736 149.111 51.3572 149.16 51.298C149.21 51.2391 149.264 51.1998 149.324 51.1801L149.413 51.298L149.324 51.5638L149.234 51.6524C148.818 52.2036 148.471 52.6416 148.194 52.9665C147.916 53.2912 147.51 53.7243 146.975 54.2656C146.44 54.807 145.949 55.2205 145.503 55.5059C145.057 55.7913 144.626 55.9339 144.21 55.9339C144.091 55.9339 143.913 55.9143 143.675 55.875C143.001 55.678 142.664 55.2547 142.664 54.6053C142.664 54.4478 142.719 54.2016 142.828 53.867C142.937 53.5275 143.155 53.1288 143.482 52.6661C143.809 52.2036 144.265 51.6623 144.849 51.0422C145.434 50.422 146.024 49.9251 146.618 49.5462ZM156.043 49.3788L156.756 48.3454H159.105L155.656 53.4044L155.508 53.6653C155.21 54.1967 155.062 54.5413 155.062 54.6937C155.062 55.0875 155.23 55.2843 155.567 55.2843C155.785 55.2449 156.028 55.1318 156.295 54.9496C156.563 54.7627 156.984 54.3886 157.559 53.8326C158.134 53.2764 158.698 52.6661 159.253 52.0019L159.61 51.5343L159.759 51.3277L159.818 51.2686L159.908 51.2391L160.027 51.3277C160.027 51.3867 159.923 51.5491 159.714 51.8099C159.506 52.0757 159.263 52.3857 158.986 52.7352L158.629 53.1485C157.718 54.1425 156.959 54.8561 156.355 55.2892C155.75 55.7175 155.22 55.9536 154.764 55.9929C153.595 55.9929 153.01 55.5059 153.01 54.5363C153.01 54.3443 153.05 54.1082 153.129 53.8374L152.743 54.2558C151.791 55.2155 151.068 55.742 150.572 55.8453C150.077 55.9437 149.789 55.9929 149.71 55.9929C149.631 55.9929 149.571 55.9929 149.532 55.9929C149.036 55.9929 148.64 55.8158 148.343 55.4616C148.045 55.1023 147.897 54.6003 147.897 53.9457C147.897 53.3159 148.199 52.5826 148.803 51.7558C149.408 50.9241 150.141 50.2203 151.003 49.6348C151.866 49.0541 152.544 48.6603 153.04 48.4635C153.535 48.2666 154.021 48.1681 154.497 48.1681C155.012 48.1681 155.418 48.2863 155.716 48.5226C156.013 48.7587 156.122 49.0442 156.043 49.3788ZM150.067 54.4576C150.126 54.9104 150.359 55.1366 150.765 55.1366C150.904 55.1366 151.098 55.0826 151.35 54.9744C151.603 54.8661 151.856 54.6937 152.108 54.4576C152.361 54.2213 152.703 53.8571 153.129 53.365L153.436 53.0107L154.076 52.184C154.68 51.4162 155.091 50.8208 155.304 50.3976C155.517 49.9743 155.626 49.5854 155.626 49.2311C155.626 49.0541 155.552 48.9064 155.403 48.7883C155.255 48.6701 155.091 48.6308 154.913 48.6702C154.675 48.7095 154.452 48.7883 154.244 48.9064C154.036 49.0244 153.763 49.2214 153.427 49.497C153.089 49.7726 152.723 50.1318 152.326 50.5747C151.93 51.0176 151.553 51.4802 151.197 51.9626C150.84 52.4448 150.548 52.9221 150.32 53.3945C150.092 53.867 150.007 54.2213 150.067 54.4576Z" fill="#5A9ED5"/>
<path fill-rule="evenodd" clip-rule="evenodd" d="M141.142 29.4683C141.581 29.4683 141.937 29.8219 141.937 30.2581C141.937 30.6943 141.581 31.048 141.142 31.048C140.703 31.048 140.347 30.6943 140.347 30.2581C140.347 29.8219 140.703 29.4683 141.142 29.4683Z" fill="#0F4C70"/>
<path fill-rule="evenodd" clip-rule="evenodd" d="M142.862 31.2133C143.158 31.2133 143.399 31.4518 143.399 31.746C143.399 32.0403 143.158 32.2788 142.862 32.2788C142.566 32.2788 142.326 32.0403 142.326 31.746C142.326 31.4518 142.566 31.2133 142.862 31.2133Z" fill="#0F4C70"/>
<path d="M181.162 78.1475C183.349 78.1475 185.121 76.387 185.121 74.2154C185.121 72.0438 183.349 70.2833 181.162 70.2833C178.975 70.2833 177.203 72.0438 177.203 74.2154C177.203 76.387 178.975 78.1475 181.162 78.1475Z" fill="#FEFEFE"/>
<path d="M179.523 76.5511V72.2292H181.452C181.84 72.2292 182.135 72.2684 182.336 72.3459C182.538 72.4233 182.699 72.5602 182.819 72.7563C182.94 72.9525 183 73.1698 183 73.4072C183 73.7141 182.899 73.9727 182.7 74.1829C182.5 74.3931 182.192 74.526 181.775 74.5833C181.928 74.6557 182.043 74.7282 182.122 74.7986C182.291 74.9515 182.45 75.1437 182.598 75.374L183.351 76.5511H182.632L182.057 75.6517C181.889 75.3912 181.751 75.193 181.642 75.0551C181.533 74.9173 181.436 74.8217 181.35 74.7664C181.264 74.7121 181.176 74.6739 181.087 74.6517C181.022 74.6386 180.916 74.6316 180.767 74.6316H180.101V76.5511H179.523ZM180.101 74.1366H181.336C181.6 74.1366 181.804 74.1095 181.952 74.0551C182.1 74.0018 182.213 73.9153 182.288 73.7955C182.365 73.6769 182.404 73.5481 182.404 73.4083C182.404 73.204 182.33 73.035 182.181 72.9032C182.032 72.7714 181.797 72.706 181.476 72.706H180.101V74.1366Z" fill="#1197B8"/>
<path d="M181.162 70.494C182.197 70.494 183.133 70.9106 183.811 71.584C184.49 72.2574 184.909 73.1878 184.909 74.2154C184.909 75.243 184.49 76.1734 183.811 76.8468C183.133 77.5203 182.197 77.9368 181.162 77.9368C180.127 77.9368 179.191 77.5203 178.513 76.8468C177.834 76.1734 177.415 75.243 177.415 74.2154C177.415 73.1878 177.834 72.2574 178.513 71.584C179.191 70.9106 180.127 70.494 181.162 70.494ZM183.38 72.0122C182.813 71.4484 182.028 71.0997 181.162 71.0997C180.296 71.0997 179.511 71.4484 178.944 72.0122C178.376 72.576 178.025 73.355 178.025 74.2154C178.025 75.0758 178.376 75.8547 178.944 76.4185C179.511 76.9824 180.296 77.3312 181.162 77.3312C182.028 77.3312 182.813 76.9824 183.38 76.4185C183.948 75.8547 184.299 75.0758 184.299 74.2154C184.299 73.355 183.948 72.576 183.38 72.0122Z" fill="#1197B8"/>
</svg>
