<svg width="36" height="36" viewBox="0 0 36 36" fill="none" xmlns="http://www.w3.org/2000/svg">
<path d="M18.5 3C10.22 3 3.5 9.72 3.5 18C3.5 26.28 10.22 33 18.5 33C26.78 33 33.5 26.28 33.5 18C33.5 9.72 26.78 3 18.5 3ZM18.5 7.5C20.99 7.5 23 9.51 23 12C23 14.49 20.99 16.5 18.5 16.5C16.01 16.5 14 14.49 14 12C14 9.51 16.01 7.5 18.5 7.5ZM18.5 28.8C14.75 28.8 11.435 26.88 9.5 23.97C9.545 20.985 15.5 19.35 18.5 19.35C21.485 19.35 27.455 20.985 27.5 23.97C25.565 26.88 22.25 28.8 18.5 28.8Z" fill="white"/>
</svg>
