<svg width="27" height="26" viewBox="0 0 27 26" fill="none" xmlns="http://www.w3.org/2000/svg">
<g clip-path="url(#clip0_230_2542)">
<g clip-path="url(#clip1_230_2542)">
<path d="M17.9718 4.50266L12.9999 9.4745L8.0281 4.50266C7.41801 3.89257 6.42848 3.89257 5.81839 4.50266L4.71354 5.60751C4.10345 6.2176 4.10345 7.20713 4.71354 7.81722L9.68538 12.7891L4.71354 17.7609C4.10345 18.371 4.10345 19.3605 4.71354 19.9706L5.81839 21.0755C6.42848 21.6856 7.41801 21.6856 8.0281 21.0755L12.9999 16.1036L17.9718 21.0755C18.5819 21.6856 19.5714 21.6856 20.1815 21.0755L21.2864 19.9706C21.8964 19.3605 21.8964 18.371 21.2864 17.7609L16.3145 12.7891L21.2864 7.81722C21.8964 7.20713 21.8964 6.2176 21.2864 5.60751L20.1815 4.50266C19.5714 3.89257 18.5819 3.89257 17.9718 4.50266Z" fill="white"/>
</g>
</g>
<defs>
<clipPath id="clip0_230_2542">
<rect width="25.875" height="25.1406" fill="white" transform="translate(0.5 0.429688)"/>
</clipPath>
<clipPath id="clip1_230_2542">
<rect width="25" height="25" fill="white" transform="translate(0.5 0.289062)"/>
</clipPath>
</defs>
</svg>
