<svg width="60" height="60" viewBox="0 0 60 60" fill="none" xmlns="http://www.w3.org/2000/svg">
<path d="M30 0C13.4274 0 0 13.4274 0 30C0 46.5726 13.4274 60 30 60C46.5726 60 60 46.5726 60 30C60 13.4274 46.5726 0 30 0ZM47.4194 33.3871C47.4194 34.1855 46.7661 34.8387 45.9677 34.8387H34.8387V45.9677C34.8387 46.7661 34.1855 47.4194 33.3871 47.4194H26.6129C25.8145 47.4194 25.1613 46.7661 25.1613 45.9677V34.8387H14.0323C13.2339 34.8387 12.5806 34.1855 12.5806 33.3871V26.6129C12.5806 25.8145 13.2339 25.1613 14.0323 25.1613H25.1613V14.0323C25.1613 13.2339 25.8145 12.5806 26.6129 12.5806H33.3871C34.1855 12.5806 34.8387 13.2339 34.8387 14.0323V25.1613H45.9677C46.7661 25.1613 47.4194 25.8145 47.4194 26.6129V33.3871Z" fill="#0F4C70"/>
</svg>
