<svg width="11" height="11" viewBox="0 0 11 11" fill="none" xmlns="http://www.w3.org/2000/svg">
<path d="M10.2143 4.32143H6.67857V0.785714C6.67857 0.351853 6.32672 0 5.89286 0H5.10714C4.67328 0 4.32143 0.351853 4.32143 0.785714V4.32143H0.785714C0.351853 4.32143 0 4.67328 0 5.10714V5.89286C0 6.32672 0.351853 6.67857 0.785714 6.67857H4.32143V10.2143C4.32143 10.6481 4.67328 11 5.10714 11H5.89286C6.32672 11 6.67857 10.6481 6.67857 10.2143V6.67857H10.2143C10.6481 6.67857 11 6.32672 11 5.89286V5.10714C11 4.67328 10.6481 4.32143 10.2143 4.32143Z" fill="#0F4C70"/>
</svg>
