<svg width="22" height="20" viewBox="0 0 22 20" fill="none" xmlns="http://www.w3.org/2000/svg">
<path d="M0.78125 3.94531H21.0938C21.5252 3.94531 21.875 3.59556 21.875 3.16406V1.21094C21.875 0.779443 21.5252 0.429688 21.0938 0.429688H0.78125C0.349756 0.429688 0 0.779443 0 1.21094V3.16406C0 3.59556 0.349756 3.94531 0.78125 3.94531ZM0.78125 11.7578H21.0938C21.5252 11.7578 21.875 11.4081 21.875 10.9766V9.02344C21.875 8.59194 21.5252 8.24219 21.0938 8.24219H0.78125C0.349756 8.24219 0 8.59194 0 9.02344V10.9766C0 11.4081 0.349756 11.7578 0.78125 11.7578ZM0.78125 19.5703H21.0938C21.5252 19.5703 21.875 19.2206 21.875 18.7891V16.8359C21.875 16.4044 21.5252 16.0547 21.0938 16.0547H0.78125C0.349756 16.0547 0 16.4044 0 16.8359V18.7891C0 19.2206 0.349756 19.5703 0.78125 19.5703Z" fill="white"/>
</svg>
