<svg width="16" height="12" viewBox="0 0 16 12" fill="none" xmlns="http://www.w3.org/2000/svg">
<path d="M15.9033 5.59446C14.3969 2.6553 11.4147 0.666687 7.99998 0.666687C4.58526 0.666687 1.60221 2.65669 0.0966515 5.59474C0.0331076 5.72044 0 5.85931 0 6.00016C0 6.14101 0.0331076 6.27988 0.0966515 6.40558C1.60304 9.34474 4.58526 11.3334 7.99998 11.3334C11.4147 11.3334 14.3978 9.34335 15.9033 6.4053C15.9669 6.2796 16 6.14073 16 5.99988C16 5.85904 15.9669 5.72016 15.9033 5.59446ZM7.99998 10C7.20886 10 6.4355 9.76542 5.7777 9.3259C5.11991 8.88637 4.60722 8.26166 4.30447 7.53075C4.00172 6.79985 3.9225 5.99558 4.07684 5.21966C4.23118 4.44374 4.61215 3.731 5.17156 3.17159C5.73097 2.61218 6.4437 2.23122 7.21962 2.07688C7.99555 1.92254 8.79981 2.00175 9.53072 2.3045C10.2616 2.60725 10.8863 3.11994 11.3259 3.77774C11.7654 4.43554 12 5.2089 12 6.00002C12.0002 6.52538 11.897 7.04564 11.696 7.53106C11.4951 8.01647 11.2005 8.45753 10.829 8.82902C10.4575 9.2005 10.0164 9.49513 9.53102 9.69606C9.0456 9.89699 8.52534 10.0003 7.99998 10ZM7.99998 3.33335C7.76197 3.33668 7.52548 3.37209 7.29693 3.43863C7.48532 3.69465 7.57573 4.00971 7.55175 4.32667C7.52777 4.64363 7.391 4.9415 7.16623 5.16627C6.94147 5.39104 6.6436 5.52781 6.32664 5.55179C6.00968 5.57577 5.69462 5.48536 5.4386 5.29697C5.29281 5.83407 5.31913 6.40338 5.51384 6.92474C5.70856 7.44611 6.06187 7.89329 6.52404 8.20334C6.98622 8.51339 7.53399 8.6707 8.09025 8.65313C8.64652 8.63556 9.18327 8.44399 9.62495 8.10538C10.0666 7.76678 10.391 7.29819 10.5524 6.76557C10.7139 6.23295 10.7042 5.66313 10.5248 5.13629C10.3454 4.60946 10.0053 4.15214 9.55238 3.82872C9.09946 3.50529 8.55652 3.33204 7.99998 3.33335Z" fill="white"/>
</svg>
